HIERARCHY
ROOT Hips
{
	OFFSET -0.179506 -22.333345 2.821913
	CHANNELS 6 Xposition Yposition Zposition Zrotation Yrotation Xrotation 
	JOINT LeftUpLeg
	{
		OFFSET 6.951974 -9.140623 -0.681533
		CHANNELS 3 Zrotation Yrotation Xrotation
		JOINT LeftLeg
		{
			OFFSET 3.427654 -37.519855 -0.449580
			CHANNELS 3 Zrotation Yrotation Xrotation
			JOINT LeftFoot
			{
				OFFSET -1.359570 -39.796059 -4.369333
				CHANNELS 3 Zrotation Yrotation Xrotation
				JOINT LeftToe
				{
					OFFSET 2.635814 -5.579078 11.928840
					CHANNELS 3 Zrotation Yrotation Xrotation
					End Site
					{
						OFFSET 0.000000 0.000000 0.000000
					}
				}
			}
		}
	}
	JOINT RightUpLeg
	{
		OFFSET -6.767048 -9.052170 -0.431982
		CHANNELS 3 Zrotation Yrotation Xrotation
		JOINT RightLeg
		{
			OFFSET -3.829005 -38.256897 -0.885003
			CHANNELS 3 Zrotation Yrotation Xrotation
			JOINT RightFoot
			{
				OFFSET 1.577377 -39.841461 -4.231180
				CHANNELS 3 Zrotation Yrotation Xrotation
				JOINT RightToe
				{
					OFFSET -2.537174 -4.814398 12.334795
					CHANNELS 3 Zrotation Yrotation Xrotation
					End Site
					{
						OFFSET 0.000000 0.000000 0.000000
					}
				}
			}
		}
	}
	JOINT Spine
	{
		OFFSET -0.253288 10.896323 -2.669631
		CHANNELS 3 Zrotation Yrotation Xrotation
		JOINT Spine1
		{
			OFFSET 0.548704 13.518043 0.109247
			CHANNELS 3 Zrotation Yrotation Xrotation
			JOINT Spine2
			{
				OFFSET 0.145701 5.292222 2.542457
				CHANNELS 3 Zrotation Yrotation Xrotation
				JOINT Neck
				{
					OFFSET -0.277840 21.387037 -4.285703
					CHANNELS 3 Zrotation Yrotation Xrotation
					JOINT Head
					{
						OFFSET 0.515184 6.496960 5.134897
						CHANNELS 3 Zrotation Yrotation Xrotation
						End Site
						{
							OFFSET 0.000000 0.000000 0.000000
						}
					}
				}
				JOINT LeftShoulder
				{
					OFFSET 7.884473 12.174932 -3.408961
					CHANNELS 3 Zrotation Yrotation Xrotation
					JOINT LeftArm
					{
						OFFSET 9.097692 3.046888 -0.886815
						CHANNELS 3 Zrotation Yrotation Xrotation
						JOINT LeftForeArm
						{
							OFFSET 25.961220 -1.277207 -2.745643
							CHANNELS 3 Zrotation Yrotation Xrotation
							JOINT LeftHand
							{
								OFFSET 24.923361 0.898606 -0.117091
								CHANNELS 3 Zrotation Yrotation Xrotation
								End Site
								{
									OFFSET 0.000000 0.000000 0.000000
								}
							}
						}
					}
				}
				JOINT RightShoulder
				{
					OFFSET -8.175920 11.883285 -3.861528
					CHANNELS 3 Zrotation Yrotation Xrotation
					JOINT RightArm
					{
						OFFSET -9.601238 3.255117 -0.914307
						CHANNELS 3 Zrotation Yrotation Xrotation
						JOINT RightForeArm
						{
							OFFSET -25.374195 -1.332924 -2.140099
							CHANNELS 3 Zrotation Yrotation Xrotation
							JOINT RightHand
							{
								OFFSET -25.529810 0.777228 -0.555919
								CHANNELS 3 Zrotation Yrotation Xrotation
								End Site
								{
									OFFSET 0.000000 0.000000 0.000000
								}
							}
						}
					}
				}
			}
		}
	}
}
MOTION
Frames: 17
Frame Time: 0.033333
27.539219 14.239518 68.371338 -178.532713 -0.491811 115.571595 13.584536 27.758799 -85.962663 -2.879940 28.855835 50.866793 -11.686171 3.702144 13.525285 nan nan nan -14.119765 -12.502731 -83.282069 3.374252 -17.535868 84.649753 -8.159499 0.955744 -31.801671 nan nan nan 4.997572 -5.502936 71.413021 -7.010345 -2.733282 -5.031759 4.081393 1.328614 -6.090366 -18.359313 11.626361 -14.407683 1.985537 1.190074 -29.770225 -9.394928 -45.355039 -12.268285 -28.124081 -39.285513 2.823167 18.264843 -13.684509 -35.757354 18.457507 -15.910857 -44.068555 -2.042374 47.585096 -5.831445 3.813500 28.438924 -19.278204 -8.567637 18.619812 -39.858370 -14.754290 13.332836 -46.906752 
25.853201 15.688133 68.762527 -178.400760 0.231220 116.357832 13.180928 26.658093 -85.338466 -4.364139 28.165726 50.463642 -10.104075 1.658895 6.442626 nan nan nan -14.416634 -12.869307 -81.739915 3.658425 -17.056876 83.390822 -7.230890 1.407618 -32.632552 nan nan nan 5.498794 -5.166159 71.111801 -6.678844 -2.566065 -4.901123 4.249136 1.206027 -5.730721 -18.490488 11.506639 -14.996702 1.607179 1.222103 -29.754935 -9.126253 -45.298894 -12.720473 -30.039931 -40.686250 3.832267 19.094748 -13.192982 -36.088450 18.136863 -16.569463 -43.334621 -1.825504 47.020399 -6.378282 4.480097 28.109246 -19.299107 -9.347223 18.749490 -41.887161 -14.176534 13.874530 -47.707510 
24.127916 17.176294 69.191704 -178.453760 0.950220 117.126175 12.586954 25.647199 -84.741080 -4.502747 28.413322 50.830263 -7.601395 2.017695 -1.215517 nan nan nan -14.812225 -13.013859 -80.087793 3.974882 -16.513409 81.895703 -6.341288 1.791104 -33.381497 nan nan nan 5.932499 -4.746703 70.762136 -6.353680 -2.510895 -4.573751 4.282097 1.122631 -5.670354 -18.689746 11.623767 -15.538839 1.227637 1.238453 -29.608544 -9.141726 -45.084331 -13.001320 -32.204759 -42.046806 4.816323 19.890442 -12.778280 -36.836856 16.644239 -17.420391 -41.866587 -1.309068 46.438651 -6.824194 5.167143 28.052065 -19.520391 -10.154843 18.403944 -43.957905 -12.873842 14.719973 -47.959787 
22.396309 18.707335 69.664673 -178.566916 1.709616 117.817492 11.766109 24.723145 -84.253618 -3.648071 29.206271 51.472603 -5.124585 3.251723 -7.435760 nan nan nan -15.188428 -12.929763 -78.299294 4.277911 -15.831207 80.226052 -5.537654 2.133900 -33.986482 nan nan nan 6.292594 -4.383387 70.461316 -6.069842 -2.647264 -4.196393 4.229392 1.178541 -5.711612 -19.008204 11.814144 -16.233495 0.804213 1.293298 -29.357988 -9.118259 -44.734057 -13.153957 -34.408247 -43.000494 5.744124 20.619691 -12.931068 -37.866644 15.009092 -18.030394 -40.628037 -0.447244 45.907925 -6.871385 5.669288 27.992931 -19.790278 -10.993805 18.211677 -46.310924 -11.753158 15.408686 -48.097068 
20.700518 20.238823 70.170280 -178.629641 2.625481 118.571971 10.856598 24.219143 -84.704299 -2.439581 29.286676 52.968370 -3.664884 4.156256 -10.711323 nan nan nan -15.439952 -12.571862 -76.560335 4.378430 -15.146452 78.417086 -4.910531 2.352422 -34.243714 nan nan nan 6.595836 -3.998486 70.075159 -5.764511 -2.777867 -3.883578 4.170275 1.240781 -5.859486 -19.325313 12.072615 -16.915872 0.506560 1.326260 -29.178967 -9.249474 -44.234042 -12.751841 -36.105226 -43.602532 6.136459 21.260288 -13.695529 -38.254949 13.668470 -18.562672 -38.949506 0.634137 45.245250 -6.365171 6.205998 28.152677 -20.046691 -11.842774 18.330556 -47.215632 -11.562204 15.537339 -46.668749 
19.035124 21.776850 70.689209 -178.784468 3.596303 119.289963 10.512632 24.415084 -85.663436 -1.291523 29.482060 55.706221 -3.267171 4.191240 -12.351640 nan nan nan -15.630182 -12.001197 -74.884287 4.348988 -14.440003 76.562502 -4.495699 2.545587 -34.212000 nan nan nan 6.737764 -3.518019 69.620963 -5.582986 -2.976567 -3.535107 4.238430 1.277663 -6.192462 -19.607957 12.681710 -17.190990 0.301319 1.177993 -29.399075 -10.045943 -44.168038 -11.959541 -38.016898 -44.021782 6.138869 23.208481 -14.133961 -39.962372 11.555825 -18.810205 -35.045808 1.659163 44.847643 -5.782537 6.959557 28.100641 -20.156044 -12.878593 18.331253 -48.129153 -10.587101 15.540598 -46.177315 
17.988804 24.011936 71.957237 -179.372355 6.278045 117.564979 12.095392 26.804002 -83.664346 -1.057233 28.824462 59.006408 -3.873155 3.802818 -13.773605 nan nan nan -13.569045 -8.695629 -69.895231 4.082719 -12.762526 73.424525 -4.451909 1.673578 -34.224967 nan nan nan 6.468666 -1.945110 74.071055 -5.649260 -2.138160 -5.670874 5.112814 1.185095 -5.688465 -19.626611 14.422835 -18.452145 -0.409843 -0.063350 -29.886817 -10.010818 -43.575855 -11.874363 -38.912307 -44.511953 6.438409 23.926123 -15.486719 -40.235798 11.307157 -18.904383 -33.116545 2.435557 44.686442 -6.103108 7.153428 27.942944 -19.739938 -13.604971 18.247127 -47.963468 -10.846879 15.484262 -47.958284 
16.328873 25.485310 72.419350 -179.147572 6.655487 118.239201 12.921301 26.327512 -84.186303 -0.383454 29.872970 61.694842 -4.164971 4.336940 -14.475571 nan nan nan -14.285793 -8.499906 -67.922082 4.321526 -12.071814 71.140181 -3.762299 1.471478 -33.662354 nan nan nan 6.424641 -1.493693 73.292665 -5.295212 -2.545336 -5.402185 5.297216 1.042182 -5.700416 -19.821404 14.777896 -18.517195 -0.331325 0.005988 -30.777362 -10.171008 -43.626470 -11.485501 -40.368688 -44.594689 7.131041 24.814198 -15.861525 -39.755441 11.257578 -19.365295 -32.297621 3.275504 44.459520 -5.759811 7.897617 27.246326 -19.314704 -14.294110 18.556270 -48.328671 -10.921452 15.811362 -48.218412 
14.726357 26.953821 72.873871 -178.824501 6.800158 119.070149 13.742399 25.661878 -84.331767 -0.174434 31.174242 63.386475 -4.494657 4.570929 -14.909517 nan nan nan -15.063503 -8.350227 -66.088228 4.426809 -11.366497 68.897249 -2.944725 1.169429 -33.136570 nan nan nan 6.023900 -1.017401 72.373384 -4.852191 -3.000782 -5.150700 5.345831 1.097222 -5.850912 -19.589670 14.752363 -18.425964 -0.080237 0.333152 -31.513789 -10.240890 -42.789634 -11.613147 -41.445099 -44.164687 9.531067 23.954583 -17.346673 -36.977590 12.688816 -19.727493 -34.384103 4.775533 43.808209 -5.003107 8.577775 26.780864 -18.246114 -15.229933 19.096992 -49.036043 -11.752388 16.002469 -49.192715 
12.979911 28.512972 73.405243 -178.110809 6.616893 119.661592 13.623392 24.182133 -84.255785 -0.207113 31.636126 64.327416 -4.327634 4.754851 -15.852988 nan nan nan -16.027672 -8.601484 -63.593426 4.635262 -10.617395 66.510023 -2.288542 0.866951 -32.575308 nan nan nan 6.004884 -1.146488 71.627289 -4.435727 -3.718260 -4.724610 5.208589 1.157638 -6.031437 -19.500343 14.386620 -18.626147 -0.150159 0.818647 -31.793862 -10.614831 -42.380348 -11.247071 -42.313039 -43.939910 11.259301 23.786340 -18.762677 -34.858718 13.749862 -20.049697 -35.739684 5.909672 43.218920 -4.320986 9.474981 25.931561 -17.319406 -16.622996 19.783143 -50.166359 -12.039966 16.425951 -49.624206 
11.227698 30.133690 73.955963 -177.559277 6.239010 119.926355 12.849097 22.521051 -83.857504 -0.274832 31.445059 65.048289 -3.845075 4.981144 -16.925960 nan nan nan -16.988009 -8.735641 -60.826967 4.665832 -9.546642 64.232302 -1.719505 0.543353 -31.990342 nan nan nan 5.964798 -0.877753 70.838903 -3.978217 -4.443822 -3.758350 5.161052 1.215299 -6.328807 -19.615325 13.852281 -19.092712 -0.205358 1.229779 -31.908829 -11.397212 -42.343066 -10.338368 -43.114011 -44.178358 12.392608 23.958785 -20.326010 -33.525163 14.807389 -20.167523 -35.750126 7.349123 42.449971 -3.434750 10.150555 24.767007 -16.922142 -18.234934 20.872510 -51.707789 -12.379016 16.887012 -49.316706 
9.461983 31.771282 74.473236 -177.146956 5.890191 120.101913 11.928818 20.941834 -83.340212 -0.530853 30.975092 65.653172 -3.095504 5.318649 -18.055339 nan nan nan -17.802486 -8.709704 -58.184249 4.280552 -8.400660 62.196726 -1.259329 0.182305 -31.112745 nan nan nan 5.895040 -0.448097 69.852525 -3.552692 -5.018545 -2.658586 5.095678 1.320934 -6.590367 -19.993540 13.331264 -19.441806 -0.307103 1.603979 -31.898702 -12.447687 -42.382994 -9.245283 -44.084148 -44.413934 13.475309 24.129545 -22.165601 -32.362270 15.657152 -20.292654 -35.724520 8.969644 41.477082 -2.611044 10.847976 23.443778 -16.841977 -19.989030 22.329449 -53.539961 -12.557189 17.194492 -48.701809 
7.630571 33.422722 74.947853 -176.725557 5.644017 120.251154 11.144203 19.325334 -82.661257 -0.931422 30.449395 66.108352 -2.201099 5.635845 -19.556321 nan nan nan -18.600041 -8.711302 -55.631920 3.798067 -7.470336 60.361882 -0.699258 0.154606 -29.775019 nan nan nan 5.972544 -0.131378 68.687406 -3.178604 -5.466353 -1.623246 4.989898 1.366927 -6.777977 -20.479570 13.153800 -19.531470 -0.605692 1.895871 -31.848890 -13.415616 -42.228934 -8.183191 -45.609865 -44.486754 14.811829 24.287286 -24.074479 -30.965028 16.492494 -20.811881 -35.834060 10.275245 40.297803 -2.068285 12.142483 22.109074 -16.554912 -21.931149 23.849288 -55.224152 -12.291286 17.483377 -48.173615 
5.817787 35.100410 75.423111 -176.345358 5.776411 120.308245 10.827407 17.944046 -81.646012 -1.255750 30.036331 66.554732 -1.592882 5.767348 -21.111350 nan nan nan -19.014693 -8.155993 -53.201915 3.195750 -6.355955 58.728110 -0.141394 0.275865 -27.962260 nan nan nan 6.121645 0.255292 67.410974 -2.835360 -5.610490 -0.464287 4.907002 1.367507 -6.971140 -20.853142 13.278544 -19.667022 -1.069302 1.923825 -31.541757 -14.196655 -41.753211 -7.450659 -47.936522 -44.530058 16.729584 24.500048 -25.952935 -29.771157 17.348867 -21.213104 -35.727540 11.510089 39.032281 -1.488309 13.295487 20.828504 -16.081802 -23.726740 25.192177 -56.651018 -11.996691 17.691243 -48.159473 
4.051776 36.808731 75.938019 -176.063627 6.371590 120.300516 10.818791 16.966208 -80.322745 -1.602313 29.554777 66.889064 -1.409328 5.490378 -22.771366 nan nan nan -18.857263 -7.038037 -51.090283 2.366813 -5.115218 57.348833 0.457312 0.330309 -25.861810 nan nan nan 6.241976 0.714549 66.147786 -2.552091 -5.469983 0.507800 4.830439 1.368656 -7.020661 -21.166599 13.844808 -19.610246 -1.673012 1.689455 -31.396657 -14.299890 -40.920902 -7.161263 -51.156327 -44.442827 19.195044 24.907074 -27.762505 -28.923974 17.908851 -21.526762 -35.535345 12.554480 37.727665 -0.932497 14.573349 19.661791 -15.099945 -25.509804 26.325466 -57.674781 -12.063068 17.821505 -49.231438 
2.302799 38.530136 76.465416 -175.807717 7.246881 120.428687 10.980001 16.229091 -78.944324 -1.710548 29.253087 67.103831 -1.200306 5.085708 -24.451598 nan nan nan -18.481448 -5.848107 -49.474527 1.508810 -4.260663 56.196790 1.176840 0.471655 -23.148242 nan nan nan 6.337539 1.154331 64.811603 -2.275678 -5.199199 1.072089 4.764290 1.314593 -6.946397 -21.270988 14.751719 -19.377915 -2.359832 1.305422 -31.328248 -13.981663 -39.973615 -7.412940 -54.931600 -43.461642 22.225873 25.709667 -29.757967 -28.713983 18.402280 -22.080108 -35.074390 13.473847 36.469255 -0.690134 15.970413 18.439156 -13.400406 -27.013653 27.274725 -58.354021 -12.379675 18.021772 -50.533662 
0.540559 40.435734 77.299591 -175.937113 7.509662 119.658373 10.827927 15.287079 -75.931961 -1.861890 29.414079 66.559368 -0.540674 4.649033 -25.914153 nan nan nan -18.641943 -4.517952 -47.111110 0.574626 -3.072587 54.919747 2.524356 0.552426 -19.668713 nan nan nan 5.589324 1.883847 65.797850 -1.787551 -5.275901 -0.586348 4.959149 1.065105 -5.813168 -20.577452 15.962035 -20.101151 -3.102376 0.985127 -30.693770 -12.112527 -38.600639 -9.234761 -59.737618 -41.851843 25.748678 26.755504 -31.517105 -28.725704 19.139041 -23.279981 -34.274605 13.989865 35.125181 -1.689545 17.437278 17.527097 -10.969547 -27.781399 27.832092 -58.895249 -12.172031 19.142218 -51.342001 
